<svg width="32" height="32" viewBox="0 0 8.47 8.47" xmlns="http://www.w3.org/2000/svg"><g stroke-width=".088" fill="#3d3d3d"><path d="M.529.529h.353v.353H.529zM1.939.529h.353v.353h-.353zM3.349.529h.353v.353h-.353zM.529 1.939h.353v.353H.529zM1.939 1.939h.353v.353h-.353zM3.349 1.939h.353v.353h-.353zM.529 3.349h.353v.353H.529zM1.939 3.349h.353v.353h-.353zM3.349 3.349h.353v.353h-.353zM4.759.529h.353v.353h-.353zM6.169.529h.353v.353h-.353zM7.589.529h.353v.353h-.353zM4.759 1.939h.353v.353h-.353zM6.169 1.939h.353v.353h-.353zM7.589 1.939h.353v.353h-.353zM4.759 3.349h.353v.353h-.353zM6.169 3.349h.353v.353h-.353zM7.589 3.349h.353v.353h-.353zM.529 4.759h.353v.353H.529zM1.939 4.759h.353v.353h-.353zM3.349 4.759h.353v.353h-.353zM.529 6.169h.353v.353H.529zM1.939 6.169h.353v.353h-.353zM3.349 6.169h.353v.353h-.353zM.529 7.589h.353v.353H.529zM1.939 7.589h.353v.353h-.353zM3.349 7.589h.353v.353h-.353zM4.759 4.759h.353v.353h-.353zM6.169 4.759h.353v.353h-.353zM7.589 4.759h.353v.353h-.353zM4.759 6.169h.353v.353h-.353zM6.169 6.169h.353v.353h-.353zM7.589 6.169h.353v.353h-.353zM4.759 7.589h.353v.353h-.353zM6.169 7.589h.353v.353h-.353zM7.589 7.589h.353v.353h-.353z"/><path d="M.529.529h.353v.353H.529zM1.939.529h.353v.353h-.353zM3.349.529h.353v.353h-.353zM.529 1.939h.353v.353H.529zM1.939 1.939h.353v.353h-.353zM3.349 1.939h.353v.353h-.353zM.529 3.349h.353v.353H.529zM1.939 3.349h.353v.353h-.353z"/></g></svg>