<svg width="4096" height="1536" xmlns="http://www.w3.org/2000/svg"><path d="M2216 19.8c5.4-10.8 16.5-17.7 28.6-17.7h120c12.1 0 23.2 6.85 28.6 17.7l7.2 14.3h96c17.7 0 32 14.3 32 32s-14.3 32-32 32h-384c-17.7 0-32-14.3-32-32s14.3-32 32-32h96zm-104 110h385v320c0 35.3-28.7 64-64 64h-257c-34.4 0-64-28.7-64-64zm80 80v224c0 8.8 8.1 16 16 16 9.7 0 16-7.2 16-16v-224c0-8.8-6.3-16-16-16-7.9 0-16 7.2-16 16zm96 0v224c0 8.8 8.1 16 16 16 9.7 0 16.9-7.2 16.9-16v-224c0-8.8-7.2-16-16.9-16-7.9 0-16 7.2-16 16zm96.9 0v224c0 8.8 7.2 16 16 16s16-7.2 16-16v-224c0-8.8-7.2-16-16-16s-16 7.2-16 16z" fill="#a2a2a2"/><path d="M3239 19.8c5.4-10.8 16.5-17.7 28.6-17.7h120c12.1 0 23.2 6.85 28.6 17.7l7.2 14.3h96c17.7 0 32 14.3 32 32s-14.3 32-32 32h-384c-17.7 0-32-14.3-32-32s14.3-32 32-32h96zm-104 110h385v320c0 35.3-28.7 64-64 64h-257c-34.4 0-64-28.7-64-64zm80 80v224c0 8.8 8.1 16 16 16 9.7 0 16-7.2 16-16v-224c0-8.8-6.3-16-16-16-7.9 0-16 7.2-16 16zm96 0v224c0 8.8 8.1 16 16 16 9.7 0 16.9-7.2 16.9-16v-224c0-8.8-7.2-16-16.9-16-7.9 0-16 7.2-16 16zm96.9 0v224c0 8.8 7.2 16 16 16s16-7.2 16-16v-224c0-8.8-7.2-16-16-16s-16 7.2-16 16z" fill="#54594a"/><g fill="#222" fill-rule="evenodd"><path d="M2048 1056v448h512v-448h-512zm258 71.1c17.2.539 28.7 12.9 37 27 16.6 28.1 27.6 72.6 40.6 119 13 46.3 27.9 94.6 39.1 114 3.06 5.2 5.52 7.72 6.97 8.99.17-.221-.0271-.0583.232-.381 4.87-6.05 12.7-30 18.8-54.6a18.8 18.8 0 0 1 22.8-13.7 18.8 18.8 0 0 1 13.7 22.8c-6.18 24.7-10.7 50.1-26 69.1-7.64 9.5-21.4 17.8-35.9 14.8s-24.6-13.6-33-27.9c-16.8-28.6-29.8-76-42.9-122-13-46.5-26.1-91.9-36.8-110-2.62-4.43-4.67-6.56-5.8-7.61-1.06.971-2.97 2.93-5.67 7.26-11.4 18.2-26.5 66.6-40.3 113-13.8 46.8-26.6 92-42.3 120-7.82 13.7-16.6 24.1-30.5 27.8-13.8 3.65-27.6-3.64-35.4-12-15.8-17-21.8-40.4-29.2-62.8a18.8 18.8 0 0 1 11.9-23.8 18.8 18.8 0 0 1 23.8 11.9c7.31 22 16 42.9 20.8 48.6 1.44-1.48 3.55-3.95 6.04-8.3 10.6-18.6 25.1-64.7 38.9-112s26.6-94.1 44.5-123c8.94-14.3 21.4-26.4 38.7-25.8zM2560 1056v448h512v-448h-512zm258 65.4a18.8 18.8 0 0 1 17.1 11.2l107 243 19.7-39.1a18.8 18.8 0 0 1 25.2-8.3 18.8 18.8 0 0 1 8.3 25.2l-37.6 74.5a18.8 18.8 0 0 1-34-.881l-106-241-109 241a18.8 18.8 0 0 1-33.2 1.98l-40.4-66.9a18.8 18.8 0 0 1 6.38-25.8 18.8 18.8 0 0 1 25.8 6.38l21.9 36.3 112-247a18.8 18.8 0 0 1 17.2-11zM3072 1056v448h512v-448h-512zm152 65.4h210a18.8 18.8 0 0 1 18.8 18.8v261l38.9.0567a18.8 18.8 0 0 1 18.8 18.8 18.8 18.8 0 0 1-18.8 18.8l-57.6-.084a18.8 18.8 0 0 1-18.8-18.8v-261h-172v261a18.8 18.8 0 0 1-18.8 18.8h-60.4a18.8 18.8 0 0 1-18.8-18.8 18.8 18.8 0 0 1 18.8-18.8h41.6v-261a18.8 18.8 0 0 1 18.8-18.8zM3584 1056v448h512v-448h-512zm358 65.8a18.8 18.8 0 0 1 14.8 18.4v231l43-47a18.8 18.8 0 0 1 26.5-1.2 18.8 18.8 0 0 1 1.2 26.5l-75.6 82.8a18.8 18.8 0 0 1-32.7-12.7v-230l-217 243a18.8 18.8 0 0 1-32.8-12.4l-.373-82.9a18.8 18.8 0 0 1 18.7-18.9 18.8 18.8 0 0 1 18.9 18.7l.152 34 217-243a18.8 18.8 0 0 1 9.57-5.74 18.8 18.8 0 0 1 8.43-.106z"/></g><g fill="#a2a2a2" stroke-width=".998"><path d="M500 441 380 322c27.2-40.2 40.8-90.6 33.4-144-12.2-91-87.2-165-179-177-136-17.1-250 96.6-233 232 11.6 91 86.1 166 178 178 53.6 7.14 104-6.2 145-33.3l120 119c15.6 15.5 40.8 15.5 56.7.0003 15.6-15.4 15.6-40.6-.0302-56.4zM288 231h-57v55.6c0 13.2-10.7 23.9-23.1 23.9-13.3 0-24-10.6-24-23.9V231h-57c-12.4 0-23.1-10.6-23.1-23.9s10.7-23.9 23.1-23.9h57v-55.6c0-13.2 10.7-23.9 23.1-23.9s24 10.6 24 23.9v55.6h55.9c14.2 0 24.9 10.6 24.9 23.9s-10.7 23.9-24 23.9zM1014 441 894 322c27.2-40.2 40.8-90.6 33.4-144-12.2-91-87.2-165-179-177-136-17.1-250 96.6-233 232 11.6 91 86.1 166 178 178 53.6 7.14 104-6.2 145-33.3l120 119c15.6 15.5 40.8 15.5 56.7.0003 15.6-15.4 15.6-40.6-.03-56.4zM802 231H641c-12.4 0-23.1-10.6-23.1-23.9s10.7-23.9 23.1-23.9h160c14.2 0 24.9 10.6 24.9 23.9s-10.7 23.9-24 23.9zM1033 274l112 103c6.99 6.46 17.2 8.16 25.9 4.4 8.76-3.8 14.4-12.4 14.4-21l-.06-72.5h320c17.7 0 32-14.2 32-32.7s-14.3-30.9-32-30.9h-320v-71.8c0-9.51-5.67-18.1-14.4-21.9-8.76-3.8-18.9-2.06-25.9 4.4l-112 103c-10.2 9.43-10.2 25.6.06 35z"/><path d="m2041 274-112 103c-6.99 6.46-17.2 8.16-25.9 4.4-8.76-3.8-14.4-12.4-14.4-21l.06-72.5h-320c-17.7 0-32-14.2-32-32.7s14.3-30.9 32-30.9h320v-71.8c0-9.51 5.67-18.1 14.4-21.9 8.76-3.8 18.9-2.06 25.9 4.4l112 103c10.2 9.43 10.2 25.6-.06 35z"/></g><path d="M3050 41.9c21.9 21.8 21.9 57.1 0 78.9l-30 29.9-97.8-97.3 30.1-29.9c21.9-21.8 57.4-21.8 79.3 0zm-318 200 167-166 97.8 97.3-167 166c-6.08 6.16-13.6 10.8-21.9 13.5l-88.8 29.4c-9.48 2.78-18.1.598-24.6-6.65-6.38-5.56-8.61-15-5.78-23.6l29.6-88.3c2.8-8.27 7.4-15.7 13.6-21.8zm19.6-178c17.7 0 32 15.2 32 31.8 0 18.5-14.3 31.8-32 31.8h-95.9c-17.7 0-32 15.1-32 31.8v256c0 17.6 14.3 31.8 32 31.8h256c17.7 0 32-14.2 32-31.8v-96.2c0-16.7 14.3-31.8 32-31.8s32 15.1 32 31.8v96.2c0 52.6-43.1 95.5-95.9 95.5h-256c-52.9 0-95.9-42.8-95.9-95.5v-256c0-52.6 43.1-95.5 95.9-95.5z" fill="#54594a"/><path d="M3631 256c0 17.6 14.3 31.8 32 31.8h144v143c0 17.6 14.3 31.8 32 31.8s32-14.2 32-31.8v-143h144c17.7 0 32-14.2 32-31.8s-14.3-31.8-32-31.8h-144v-143c0-17.6-14.3-31.8-32-31.8s-32 14.2-32 31.8v143h-144c-17.7-.01-32 14.2-32 31.8z" fill="#3d3d3d"/><g fill="#fff"><path d="m320 1015 4.1-107h-114l-33.4 107h-130l175-492h225l2.73 492zm-28-372-53.9 173h89.4l7.51-173zM853 524q77.8 0 111 34.1 24.6 25.9 24.6 65.5 0 13.6-2.73 28.7l-6.14 32.8q-7.51 38.9-29.4 60.8-21.2 21.8-37.6 21.8l-.683 5.46q19.1 0 38.9 21.2t19.8 49.8q0 11.6-2.73 24.6l-4.1 21.2q-10.9 58.7-52.6 92.2-41 33.4-115 33.4h-228l86.7-492zm-61.4 291h-64.8l-16.4 94.2h67.53q31.4 0 49.8-14.3 18.4-15 18.4-36.2 0-43.7-54.6-43.7zM810 631h-51.2L741 733h50.5q65.5 0 65.5-57.3 0-19.8-12.3-32.1-11.6-12.3-34.8-12.3zM1233 1021q-97.6 0-135-42.3-25.9-30-25.9-84 0-23.2 4.78-49.8l28-157q30.7-173 222-173 79.2 0 120 34.1 41 33.4 41 92.2 0 27.3-8.19 54.6-7.51 26.6-15 39.6l-7.51 13.6h-121q22.5-25.9 22.5-73.7 0-25.3-13-39.6-13-15-38.2-15-69 0-81.9 76.5l-23.9 138q-3.41 17.8-3.41 34.8 0 45.1 53.9 45.1 64.8 0 77.8-73h123l-3.41 19.8q-27.3 159-216 159zM1854 524q89.4 0 128 45.1 28 34.1 28 85.3 0 18.4-3.41 38.9l-26.6 152q-13.6 77.1-66.9 124t-138 46.4h-199l86.7-492zm-43 106h-44.4l-48.5 278h64.8q32.1 0 49.8-17.1 18.4-17.8 25.3-57.3l19.8-112q2.73-15 2.73-27.3 0-64.8-69.6-64.8z"/></g><g fill="#727c67"><path d="m319 1533 4.1-107h-114l-33.4 107h-130l175-492h225l2.73 492zm-28-372-53.9 173h89.4l7.51-173zM852 1041q77.8 0 111 34.1 24.6 25.9 24.6 65.5 0 13.6-2.73 28.7l-6.14 32.8q-7.51 38.9-29.4 60.8-21.2 21.8-37.6 21.8l-.683 5.46q19.1 0 38.9 21.2t19.8 49.8q0 11.6-2.73 24.6l-4.1 21.2q-10.9 58.7-52.6 92.2-41 33.4-115 33.4h-228l86.7-492zm-61.4 291h-64.8l-16.4 94.2h67.53q31.4 0 49.8-14.3 18.4-15 18.4-36.2 0-43.7-54.6-43.7zm18.4-184h-51.2L740 1250h50.5q65.5 0 65.5-57.3 0-19.8-12.3-32.1-11.6-12.3-34.8-12.3zM1233 1538q-97.6 0-135-42.3-25.9-30-25.9-84 0-23.2 4.78-49.8l28-157q30.7-173 222-173 79.2 0 120 34.1 41 33.4 41 92.2 0 27.3-8.19 54.6-7.51 26.6-15 39.6l-7.51 13.6h-121q22.5-25.9 22.5-73.7 0-25.3-13-39.6-13-15-38.2-15-69 0-81.9 76.5l-23.9 138q-3.41 17.8-3.41 34.8 0 45.1 53.9 45.1 64.8 0 77.8-73h123l-3.41 19.8q-27.3 159-216 159zM1854 1041q89.4 0 128 45.1 28 34.1 28 85.3 0 18.4-3.41 38.9l-26.6 152q-13.6 77.1-66.9 124-53.2 46.4-138 46.4h-199l86.7-492zm-43 106h-44.4l-48.5 278h64.8q32.1 0 49.8-17.1 18.4-17.8 25.3-57.3l19.8-112q2.73-15 2.73-27.3 0-64.8-69.6-64.8z"/></g><g fill="none" stroke="#222" stroke-linecap="round" stroke-width="37.6"><path d="M2140 841c7.48 22.5 15 44.9 25.2 56 10.2 11 22.6 10.7 35.8-12.3 13.2-23 26.8-68.7 40.6-116 13.8-46.8 27.8-94.6 42.4-118 14.6-23.4 29.9-22.3 43.6.737s25.7 68 38.7 114c13 46.4 27 94.3 41 118s28 23.4 38 10.9c10.1-12.5 16.2-37.2 22.4-61.9"/><g stroke-linejoin="round"><path d="m2652 841 40.4 66.9 126-280 123 280 37.6-74.5M3164 908h60.4V628h210v280l57.6.0832M3688 825l.373 82.9 250-280-.0001 280 75.6-82.8"/></g></g></svg>