<svg width="175" height="50" viewBox="0 0 46.3 13.2" xmlns="http://www.w3.org/2000/svg"><g stroke-width=".261" aria-label="YNTH80"><g fill="#a9a9a6"><path d="M11.211 3.227 12.817.878h1.707l-2.93 4.106-.465 2.567H9.412l.466-2.567L8.433.878h1.818l.74 2.35zM20.503.875l-1.192 6.682h-1.717l-1.192-3.651-.645 3.651H14.04L15.242.875h1.767l1.182 3.415.617-3.415zM27.371 2.32h-2.333l-.94 5.23H22.38l.94-5.23h-2.343l.265-1.451h6.404zM33.734.875l-1.192 6.682h-1.717l.437-2.408h-1.849l-.427 2.408h-1.717L28.471.875h1.707l-.513 2.823h1.848l.513-2.823z"/></g><path d="M33.835 6.09q0-.455.133-.835.143-.38.294-.576.162-.204.4-.37t.303-.195l.181-.065q-.199-.065-.389-.352-.17-.279-.17-.753 0-.984.75-1.55.76-.575 1.94-.575t1.716.38q.541.38.541 1.066 0 .353-.123.65t-.304.464q-.37.37-.645.472l-.123.047q.76.436.76 1.431 0 1.224-.77 1.786-.76.566-2.243.566-1.03 0-1.646-.39-.608-.399-.608-1.204zm1.727-.455q0 .612.788.612.513 0 .798-.213.294-.224.294-.612t-.456-.502l-.626-.139-.085.028q-.057.01-.2.074-.133.065-.237.148-.275.241-.275.603zm2.03-2.527q.057-.158.057-.362t-.151-.353q-.143-.148-.466-.148-.313 0-.531.205-.218.194-.218.408 0 .205.066.316.095.186.218.213l.55.13q.058 0 .162-.055.114-.056.181-.12.076-.075.133-.232zM43.531.81q2.242 0 2.242 1.964 0 .363-.076.799l-.228 1.303q-.246 1.421-1.03 2.112-.77.696-2.141.696-1.364 0-1.89-.687-.35-.473-.35-1.283 0-.39.075-.845l.229-1.303Q40.856.802 43.533.802zm-1.747 4.62q0 .816.77.816.474 0 .769-.306.304-.306.446-1.106l.219-1.224q.056-.306.056-.529 0-.835-.759-.835-.969.019-1.212 1.362l-.228 1.224q-.057.344-.057.595z" fill="#dedede"/></g><path d="M4.823.586a7.364 7.364 0 0 0-1.256.092c-.549.09-1.073.248-1.481.493a2.92 2.92 0 0 0-.888.856 1.895 1.895 0 0 0-.345.83 4.37 4.37 0 0 0-.03 1.229c.054.458.184.93.555 1.27.37.338.983.542 1.492.712s.922.297 1.253.432c.334.135.596.278.716.5.118.224.094.528-.003.743a.76.76 0 0 1-.443.405c-.177.065-.363.07-.564.075-.203.006-.424.014-.631-.012a1.076 1.076 0 0 1-.54-.201.814.814 0 0 1-.292-.477c-.036-.188-.001-.39.034-.591L.08 6.941a9.23 9.23 0 0 0-.002.93c.02.268.07.443.164.665.017.042.041.087.06.13h6.758c.22-.485.34-1.01.334-1.503a2.596 2.596 0 0 0-.427-1.428 2.274 2.274 0 0 0-1.041-.84c-.437-.184-.967-.273-1.328-.355a4.43 4.43 0 0 1-.766-.237c-.213-.085-.445-.183-.57-.366-.124-.181-.14-.445-.1-.66s.133-.381.31-.506c.175-.124.432-.207.734-.238s.649-.012.893.075.387.24.419.485c.03.244-.048.58-.093.76-.046.181-.058.209-.07.237h2.229c.07-.154.138-.307.212-.554.074-.244.153-.58.122-.948s-.174-.771-.374-1.073c-.199-.303-.456-.504-.842-.65-.39-.146-.91-.237-1.455-.27A7.847 7.847 0 0 0 4.832.58zM.424 8.96c.058.11.119.169.18.28.055.056.113.111.171.166h5.777c.149-.154.273-.27.371-.448zm.665.75c.231.15.535.253 1.007.339.877.158 2.616.164 3.366.002.318-.069.585-.174.813-.341z" fill="#a9a9a6"/><path d="M7.8 8.21c-.046.17-.103.284-.171.447h38.1l.087-.447z" fill="#e06060"/><path d="m7.52 8.96-.04.084c-.077.142-.168.229-.273.363h38.4l.087-.447z" fill="#d3c745"/><path d="M6.98 9.71a1.828 1.828 0 0 1-.627.441l39.1.006.086-.447z" fill="#4347ae"/><g fill="#dedede" stroke-width=".182" aria-label="DIGITAL SYNTHESIZER"><path d="m17.76 12.6.3-1.74h.468q.195 0 .25.006.109.01.194.044.087.033.158.093.072.06.125.143.054.084.085.194.031.11.036.24.01.28-.09.498-.099.217-.256.345-.12.1-.316.147-.11.026-.34.026zm.406-.28h.18q.198 0 .284-.024.088-.025.158-.09.102-.097.17-.257.066-.16.058-.377-.007-.185-.07-.277-.064-.094-.152-.124-.063-.021-.22-.021h-.207zM19.56 12.6l.3-1.74h.357l-.3 1.74zM21.127 11.7h.777l-.129.745q-.134.089-.332.15-.197.062-.404.062-.322 0-.5-.146-.242-.2-.256-.577-.009-.254.084-.486.11-.28.328-.434t.518-.154.487.14q.188.14.257.408l-.331.037q-.05-.147-.15-.222-.1-.074-.248-.074-.173 0-.315.09t-.216.278q-.075.188-.067.41.008.22.112.326.103.104.295.104.115 0 .234-.032.12-.033.207-.078l.044-.258h-.443zM22.06 12.6l.3-1.74h.357l-.3 1.74zM23.56 12.6h-.358l.25-1.45h-.51l.05-.29h1.37l-.05.29h-.501zM25.245 12.2h-.688l-.195.384h-.367l.919-1.74h.397l.345 1.74h-.339zm-.054-.289-.127-.699-.393.699zM25.86 12.6l.3-1.74h.357l-.249 1.45h.884l-.05.29zM27.938 12l.34-.018q.012.162.063.22.082.092.292.092.175 0 .252-.063.076-.063.073-.152-.003-.077-.069-.13-.046-.04-.253-.127-.204-.088-.3-.146-.095-.06-.152-.153-.056-.094-.06-.22-.009-.218.145-.363t.455-.145q.306 0 .478.143.173.143.199.38l-.342.016q-.017-.124-.097-.19-.08-.067-.23-.067-.147 0-.21.052-.06.052-.057.132.002.074.062.123.06.05.262.136.305.129.389.21.126.118.133.304.008.23-.168.393-.175.162-.5.162-.224 0-.392-.075-.165-.076-.238-.21-.073-.134-.074-.308zM30.46 12.6h-.357l.116-.676-.518-1.06h.38l.234.49q.084.177.113.255.04-.077.096-.163l.156-.23.232-.352h.415l-.756 1.09zM32.56 12.6h-.333l-.512-1.17-.201 1.17h-.333l.3-1.74h.333l.513 1.16.2-1.16h.332zM33.66 12.6h-.358l.25-1.45h-.51l.05-.29h1.37l-.05.29h-.501zM35.63 11.8h-.671l-.134.776h-.358l.3-1.74h.357l-.115.671h.672l.116-.671h.357l-.3 1.74h-.357zM36.16 12.6l.3-1.74h1.29l-.05.29h-.93l-.069.395h.899l-.05.29h-.899l-.092.472h1.01l-.05.29zM37.838 12l.34-.018q.012.162.063.22.082.092.292.092.175 0 .252-.063.076-.063.073-.152-.003-.077-.069-.13-.046-.04-.253-.127-.204-.088-.3-.146-.095-.06-.152-.153-.056-.094-.06-.22-.009-.218.145-.363t.455-.145q.306 0 .478.143.173.143.199.38l-.342.016q-.017-.124-.097-.19-.08-.067-.23-.067-.147 0-.21.052-.06.052-.057.132.002.074.062.123.06.05.262.136.305.129.389.21.126.118.133.304.008.23-.168.393-.175.162-.5.162-.224 0-.392-.075-.165-.076-.238-.21-.073-.134-.074-.308zM39.36 12.6l.3-1.74h.357l-.3 1.74zM40.06 12.6l.047-.274.957-1.17h-.809l.05-.29h1.25l-.042.272-.967 1.18.186-.004.314-.002h.41l-.05.29zM41.56 12.6l.3-1.74h1.29l-.05.29h-.93l-.069.395H43l-.05.29h-.899l-.092.472h1.01l-.05.29zM43.56 12.6h-.358l.3-1.74h.771q.2 0 .31.042.113.04.185.148.073.11.079.264.008.222-.12.366-.128.143-.396.178.071.062.135.162.128.204.288.576h-.384q-.051-.147-.197-.458-.08-.168-.165-.226-.052-.034-.179-.034h-.146zm.17-.98h.19q.287 0 .379-.034.093-.035.144-.108.05-.074.048-.154-.004-.095-.083-.142-.048-.029-.206-.029h-.393z"/></g></svg>